<svg width="48" height="49" viewBox="0 0 48 49" fill="none" xmlns="http://www.w3.org/2000/svg">
<path d="M22.2252 4.87006C21.1114 5.07871 20.1008 5.65751 19.3572 6.51259C18.6137 7.36768 18.1808 8.44889 18.1288 9.58086C18.1043 10.1054 18.204 10.6353 18.3423 11.1782C18.4715 11.668 18.6126 12.1546 18.7656 12.6375L23.4005 27.5383C21.6038 26.6661 19.5615 26.4399 17.6175 26.8977C15.6736 27.3555 13.9468 28.4693 12.7282 30.0516C11.5096 31.6339 10.8737 33.5879 10.9275 35.5843C10.9814 37.5807 11.7218 39.4976 13.0239 41.0118C14.326 42.5261 16.1103 43.5453 18.0761 43.8976C20.0419 44.2499 22.0691 43.9139 23.8161 42.9461C25.5631 41.9783 26.9231 40.4379 27.6669 38.5844C28.4108 36.731 28.493 34.6778 27.8998 32.7708L23.127 17.4266C23.3386 17.4667 23.5699 17.5064 23.8208 17.5458L29.282 18.4413C30.1257 18.5809 30.8133 18.6925 31.3655 18.7505C31.9228 18.8126 32.4606 18.8368 32.9766 18.7414C34.0907 18.5324 35.1016 17.953 35.845 17.0972C36.5884 16.2414 37.0208 15.1595 37.0719 14.0271C37.0964 13.5026 36.9967 12.9726 36.8579 12.428C36.7213 11.8904 36.515 11.2271 36.2609 10.4101L36.2158 10.2652C36.0268 9.65774 35.8791 9.18292 35.6535 8.75915C35.0717 7.67024 34.1095 6.83351 32.9504 6.40844C32.4969 6.24316 32.007 6.16388 31.3799 6.06217L25.9198 5.17017C25.228 5.04833 24.5331 4.94465 23.8358 4.85922C23.2802 4.79654 22.7407 4.77292 22.2252 4.87006Z" fill="black"/>
</svg>
