<svg width="144" height="101" viewBox="0 0 144 101" fill="none" xmlns="http://www.w3.org/2000/svg">
<path d="M96.3657 99.6874C94.9964 99.9174 93.6985 98.9935 93.4672 97.6241C93.2362 96.2548 94.1589 94.9587 95.5279 94.7286L96.3657 99.6874ZM92.6299 40.2879C92.831 38.9144 94.1079 37.9653 95.4818 38.1674L95.0113 41.3859C95.0429 41.1698 95.0786 40.9271 95.1185 40.6546C95.4824 38.1672 95.4829 38.1673 95.4838 38.1674C95.4843 38.1675 95.4857 38.1672 95.4867 38.1674C95.4888 38.1677 95.4913 38.1687 95.4946 38.1692L95.6304 38.19C95.7228 38.2043 95.8578 38.225 96.0312 38.2532C96.3778 38.3097 96.8809 38.3948 97.5182 38.5099C98.7927 38.7399 100.607 39.0913 102.781 39.5801C107.121 40.5559 112.938 42.0876 118.784 44.3076C124.602 46.5171 130.604 49.4656 135.204 53.3396C139.673 57.1037 143.04 61.944 143.289 67.9746L143.303 68.5618C143.35 74.824 140.018 79.8872 135.506 83.8348C131.006 87.7718 125.103 90.8186 119.369 93.1281C113.608 95.4484 107.866 97.0847 103.579 98.1398C101.432 98.6683 99.6386 99.0534 98.3787 99.3072C97.7488 99.4341 97.2512 99.5277 96.9085 99.5906C96.7371 99.6221 96.6041 99.6458 96.5127 99.6618C96.4671 99.6698 96.4315 99.6767 96.4069 99.681C96.3949 99.683 96.3853 99.6841 96.3785 99.6853C96.375 99.6859 96.3718 99.686 96.3696 99.6864L96.3677 99.6874C96.3668 99.6875 96.366 99.6875 95.9473 97.208L95.5279 94.7286C95.5285 94.7285 95.5299 94.7279 95.5318 94.7276C95.5357 94.7269 95.5423 94.7259 95.5514 94.7244C95.57 94.7212 95.6001 94.7163 95.6396 94.7094C95.7185 94.6956 95.8383 94.6736 95.9962 94.6446C96.3124 94.5866 96.7814 94.4979 97.3812 94.3771C98.5816 94.1353 100.304 93.7659 102.372 93.2568C106.519 92.2363 112.017 90.6655 117.486 88.4625C122.983 86.2487 128.299 83.4548 132.192 80.0484C136.073 76.6525 138.306 72.8683 138.274 68.5944L138.265 68.1927C138.096 64.0533 135.808 60.4197 131.966 57.1843C127.988 53.8331 122.581 51.1272 117.002 49.0086C111.451 46.9006 105.881 45.4298 101.682 44.4859C99.5874 44.0149 97.8439 43.6772 96.629 43.4579C96.0222 43.3484 95.5477 43.2689 95.2277 43.2168C95.0677 43.1908 94.9462 43.1713 94.8664 43.1589C94.8265 43.1527 94.7966 43.1482 94.7778 43.1454C94.7687 43.144 94.7621 43.1433 94.7581 43.1427C94.7562 43.1424 94.7548 43.1419 94.7541 43.1418L94.7531 43.1408C93.3797 42.938 92.4289 41.6614 92.6299 40.2879ZM118.128 68.6218C118.099 66.6514 117.153 64.8815 115.404 63.2301C113.632 61.5562 111.181 60.1561 108.572 59.0302C105.986 57.9143 103.381 57.1247 101.407 56.6138C100.425 56.3595 99.6086 56.1771 99.0435 56.0588C98.7611 55.9997 98.5417 55.9567 98.3962 55.9291C98.3237 55.9154 98.2691 55.9051 98.2347 55.8989C98.2177 55.8959 98.2053 55.8938 98.1982 55.8925L98.1914 55.8917C96.8234 55.6554 95.9038 54.3548 96.1381 52.9867C96.3725 51.6184 97.6725 50.7007 99.0411 50.9363L98.6964 52.9517C99.0416 50.936 99.0423 50.9361 99.0431 50.9363L99.045 50.9362C99.0464 50.9365 99.048 50.9368 99.0499 50.9371C99.0542 50.9379 99.0598 50.9396 99.0667 50.9408C99.0805 50.9433 99.0998 50.9465 99.1238 50.9509C99.1721 50.9596 99.2413 50.9718 99.3287 50.9883C99.5035 51.0214 99.7541 51.0703 100.07 51.1363C100.7 51.2684 101.594 51.4694 102.663 51.7461C104.792 52.2973 107.662 53.1619 110.561 54.4129C113.437 55.654 116.483 57.3342 118.856 59.575C121.252 61.8384 123.101 64.8179 123.156 68.5529C123.211 72.3198 121.331 75.3514 118.901 77.6579C116.49 79.948 113.359 81.7063 110.39 83.0266C107.396 84.3579 104.421 85.3073 102.209 85.9224C101.099 86.2312 100.17 86.4585 99.5148 86.6096C99.1872 86.6852 98.9272 86.7419 98.7462 86.7802C98.6556 86.7994 98.5844 86.8143 98.5347 86.8244C98.5099 86.8294 98.49 86.8332 98.4759 86.836C98.4691 86.8374 98.4635 86.8384 98.4593 86.8392C98.4571 86.8396 98.4549 86.84 98.4534 86.8403L98.4514 86.8403C98.4492 86.8326 98.4241 86.708 98.0322 84.7086L98.4505 86.8413C97.0877 87.1071 95.7662 86.2173 95.4991 84.8543C95.2487 83.5765 96.014 82.3361 97.2337 81.9672L97.4833 81.9049C97.4846 81.9046 97.487 81.9044 97.4901 81.9038C97.4979 81.9023 97.5111 81.9001 97.5293 81.8964C97.566 81.8889 97.624 81.8769 97.7007 81.8607C97.854 81.8282 98.0842 81.7781 98.3802 81.7099C98.9734 81.5731 99.8287 81.3637 100.857 81.0778C102.923 80.5034 105.648 79.63 108.343 78.4312C111.064 77.2214 113.613 75.7418 115.437 74.0101C117.243 72.2945 118.155 70.52 118.128 68.6218ZM93.0109 68.4325C93.0108 68.4235 92.9988 68.1087 92.294 67.5033C91.6195 66.9238 90.6216 66.3563 89.4712 65.8475C88.3461 65.3499 87.2018 64.9635 86.3268 64.6991C85.8933 64.5681 85.5342 64.4697 85.2872 64.4049C85.1639 64.3726 85.0687 64.3483 85.0072 64.3331C84.9764 64.3255 84.9536 64.3205 84.9401 64.3173L84.9273 64.3136C83.5744 63.9997 82.7307 62.649 83.0433 61.2963C83.3559 59.9437 84.7068 59.1014 86.0598 59.4152L85.5157 61.7673C86.0314 59.5357 86.0589 59.4219 86.0608 59.4162C86.0616 59.4164 86.0636 59.4169 86.0647 59.4171C86.0672 59.4177 86.0709 59.4181 86.0746 59.4189C86.082 59.4207 86.092 59.4235 86.1042 59.4264C86.1284 59.4322 86.1618 59.4403 86.2037 59.4506C86.2882 59.4714 86.4083 59.5009 86.5577 59.54C86.8561 59.6182 87.2762 59.7342 87.7778 59.8858C88.7739 60.1868 90.1263 60.6413 91.501 61.2492C92.8506 61.8461 94.357 62.6483 95.569 63.6894C96.7507 64.7045 98.0084 66.2624 98.0392 68.3636C98.0681 70.3464 97.0421 71.9056 95.9832 72.9868C94.9153 74.0773 93.5736 74.9361 92.3711 75.5804C91.1469 76.2362 89.9397 76.7362 89.0512 77.0698C88.6035 77.2379 88.2276 77.3677 87.9597 77.456C87.826 77.5001 87.7186 77.5337 87.6419 77.5576C87.6036 77.5696 87.5725 77.5796 87.55 77.5864C87.5389 77.5898 87.5297 77.5925 87.5226 77.5946C87.5192 77.5956 87.5163 77.597 87.5138 77.5977C87.5126 77.598 87.5109 77.5984 87.5099 77.5987C87.5093 77.5989 87.5078 77.5985 86.7929 75.1872C86.707 74.8975 86.631 74.6426 86.5645 74.4183L87.508 77.5987C86.1766 77.9923 84.7768 77.2317 84.382 75.9C83.9875 74.5687 84.7462 73.1707 86.0768 72.7768C86.0783 72.7763 86.0805 72.7752 86.0856 72.7737C86.0964 72.7704 86.1155 72.7653 86.1414 72.7572C86.1934 72.741 86.2747 72.7153 86.3809 72.6803C86.5936 72.6101 86.9044 72.5034 87.2799 72.3625C88.0383 72.0777 89.0264 71.6654 89.9929 71.1476C90.9807 70.6183 91.8252 70.0417 92.3886 69.4665C92.9607 68.8823 93.0125 68.5452 93.0109 68.4325Z" fill="#F0F0F0"/>
<path d="M47.2404 38.8252C48.6097 38.5952 49.9076 39.5191 50.1389 40.8885C50.37 42.2577 49.4473 43.5539 48.0783 43.784L47.2404 38.8252ZM50.9763 98.2247C50.7751 99.5982 49.4982 100.547 48.1243 100.345L48.5948 97.1267C48.5632 97.3428 48.5276 97.5855 48.4877 97.858C48.1237 100.345 48.1233 100.345 48.1224 100.345C48.1218 100.345 48.1204 100.345 48.1194 100.345C48.1174 100.345 48.1148 100.344 48.1115 100.343L47.9757 100.323C47.8833 100.308 47.7483 100.288 47.575 100.259C47.2283 100.203 46.7253 100.118 46.088 100.003C44.8134 99.7727 42.9992 99.4213 40.8249 98.9325C36.4853 97.9567 30.6683 96.425 24.8221 94.205C19.0037 91.9955 13.002 89.0469 8.40257 85.173C3.93361 81.4089 0.56642 76.5686 0.317085 70.538L0.303568 69.9508C0.256234 63.6886 3.58838 58.6254 8.10004 54.6778C12.5997 50.7407 18.5035 47.694 24.2373 45.3845C29.9981 43.0642 35.7401 41.4279 40.0266 40.3728C42.1743 39.8443 43.9675 39.4592 45.2274 39.2054C45.8574 39.0785 46.3549 38.9849 46.6976 38.922C46.8691 38.8905 47.0021 38.8668 47.0934 38.8508C47.1391 38.8428 47.1746 38.8359 47.1993 38.8316C47.2113 38.8296 47.2208 38.8285 47.2277 38.8273C47.2311 38.8267 47.2344 38.8266 47.2365 38.8262L47.2384 38.8252C47.2393 38.8251 47.2401 38.8251 47.6589 41.3046L48.0783 43.784C48.0777 43.7841 48.0763 43.7847 48.0744 43.785C48.0705 43.7857 48.0638 43.7867 48.0548 43.7882C48.0362 43.7914 48.006 43.7963 47.9666 43.8032C47.8877 43.817 47.7678 43.839 47.61 43.868C47.2937 43.926 46.8247 44.0147 46.225 44.1355C45.0245 44.3773 43.3023 44.7467 41.2337 45.2558C37.0876 46.2763 31.5892 47.8471 26.1199 50.0501C20.6234 52.2639 15.3069 55.0578 11.4138 58.4642C7.53264 61.8601 5.29999 65.6443 5.33236 69.9182L5.34119 70.3199C5.51008 74.4593 7.79859 78.0929 11.6398 81.3283C15.6186 84.6795 21.0248 87.3854 26.6038 89.504C32.155 91.612 37.7255 93.0828 41.9239 94.0267C44.0187 94.4977 45.7622 94.8354 46.9771 95.0547C47.584 95.1642 48.0585 95.2437 48.3784 95.2958C48.5384 95.3218 48.6599 95.3413 48.7398 95.3537C48.7796 95.3599 48.8095 95.3644 48.8284 95.3672C48.8375 95.3686 48.8441 95.3693 48.8481 95.3699C48.8499 95.3702 48.8513 95.3707 48.852 95.3708L48.853 95.3718C50.2264 95.5746 51.1772 96.8512 50.9763 98.2247ZM25.4785 69.8908C25.5074 71.8612 26.4532 73.6311 28.2018 75.2825C29.9744 76.9564 32.4251 78.3565 35.0342 79.4824C37.6203 80.5983 40.2252 81.3879 42.199 81.8988C43.1816 82.1531 43.9975 82.3355 44.5627 82.4538C44.845 82.5129 45.0645 82.5559 45.2099 82.5835C45.2825 82.5972 45.3371 82.6075 45.3715 82.6137C45.3884 82.6167 45.4008 82.6188 45.4079 82.6201L45.4148 82.6209C46.7828 82.8572 47.7023 84.1578 47.4681 85.5259C47.2336 86.8942 45.9337 87.8119 44.565 87.5763L44.9098 85.5609C44.5645 87.5766 44.5638 87.5765 44.5631 87.5763L44.5611 87.5764C44.5597 87.5761 44.5581 87.5758 44.5562 87.5755C44.5519 87.5747 44.5463 87.573 44.5394 87.5718C44.5256 87.5693 44.5064 87.5661 44.4823 87.5617C44.434 87.553 44.3649 87.5408 44.2775 87.5243C44.1027 87.4911 43.852 87.4423 43.5366 87.3763C42.9058 87.2442 42.0125 87.0432 40.9433 86.7665C38.8137 86.2153 35.9441 85.3507 33.045 84.0997C30.1688 82.8586 27.1234 81.1784 24.7506 78.9376C22.3539 76.6742 20.505 73.6947 20.4502 69.9597C20.3951 66.1928 22.2756 63.1612 24.7046 60.8547C27.1166 58.5646 30.247 56.8063 33.216 55.486C36.2097 54.1547 39.1852 53.2053 41.3972 52.5901C42.5075 52.2814 43.4361 52.0541 44.0913 51.903C44.419 51.8274 44.6789 51.7707 44.8599 51.7323C44.9505 51.7132 45.0217 51.6983 45.0715 51.6882C45.0962 51.6832 45.1161 51.6794 45.1302 51.6766C45.1371 51.6752 45.1426 51.6742 45.1469 51.6734C45.149 51.673 45.1513 51.6726 45.1528 51.6723L45.1547 51.6723C45.1569 51.68 45.182 51.8046 45.574 53.804L45.1557 51.6713C46.5184 51.4055 47.84 52.2953 48.1071 53.6583C48.3574 54.9361 47.5921 56.1765 46.3725 56.5454L46.1229 56.6077C46.1215 56.608 46.1192 56.6082 46.116 56.6088C46.1083 56.6103 46.095 56.6125 46.0768 56.6162C46.0402 56.6237 45.9822 56.6357 45.9055 56.6519C45.7521 56.6844 45.5219 56.7344 45.226 56.8027C44.6328 56.9395 43.7774 57.1489 42.7491 57.4348C40.6836 58.0092 37.9585 58.8826 35.2626 60.0814C32.5424 61.2912 29.9935 62.7708 28.1696 64.5025C26.3627 66.2181 25.4507 67.9926 25.4785 69.8908ZM50.5952 70.0801C50.5953 70.0891 50.6073 70.4039 51.3121 71.0093C51.9867 71.5888 52.9845 72.1563 54.1349 72.6651C55.2601 73.1627 56.4043 73.5491 57.2793 73.8135C57.7129 73.9445 58.072 74.0429 58.319 74.1077C58.4423 74.14 58.5374 74.1643 58.599 74.1795C58.6297 74.1871 58.6526 74.1921 58.666 74.1953L58.6788 74.199C60.0318 74.5129 60.8754 75.8636 60.5629 77.2163C60.2503 78.5689 58.8993 79.4112 57.5463 79.0974L58.0904 76.7453C57.5748 78.9769 57.5472 79.0907 57.5454 79.0964C57.5445 79.0962 57.5425 79.0957 57.5414 79.0955C57.5389 79.0949 57.5353 79.0945 57.5316 79.0937C57.5241 79.0919 57.5141 79.0891 57.502 79.0862C57.4778 79.0804 57.4444 79.0723 57.4024 79.062C57.3179 79.0412 57.1979 79.0117 57.0485 78.9726C56.7501 78.8944 56.3299 78.7784 55.8283 78.6268C54.8322 78.3258 53.4798 77.8713 52.1051 77.2634C50.7556 76.6665 49.2492 75.8643 48.0371 74.8232C46.8555 73.8081 45.5977 72.2502 45.567 70.149C45.538 68.1662 46.5641 66.607 47.6229 65.5258C48.6908 64.4353 50.0325 63.5765 51.235 62.9322C52.4592 62.2764 53.6665 61.7764 54.5549 61.4428C55.0027 61.2747 55.3786 61.1449 55.6465 61.0566C55.7801 61.0125 55.8876 60.9789 55.9642 60.955C56.0026 60.943 56.0336 60.933 56.0561 60.9262C56.0673 60.9228 56.0765 60.9201 56.0835 60.918C56.0869 60.917 56.0899 60.9156 56.0923 60.9149C56.0935 60.9146 56.0952 60.9142 56.0962 60.9139C56.0968 60.9137 56.0984 60.9141 56.8133 63.3253C56.8992 63.6151 56.9751 63.87 57.0416 64.0943L56.0982 60.9139C57.4295 60.5203 58.8293 61.2809 59.2241 62.6126C59.6186 63.9439 58.8599 65.3419 57.5293 65.7358C57.5279 65.7363 57.5256 65.7374 57.5205 65.7389C57.5097 65.7422 57.4907 65.7473 57.4648 65.7554C57.4127 65.7716 57.3314 65.7973 57.2252 65.8323C57.0125 65.9025 56.7017 66.0091 56.3262 66.1501C55.5678 66.4349 54.5798 66.8472 53.6133 67.365C52.6254 67.8943 51.7809 68.4709 51.2176 69.0461C50.6454 69.6303 50.5937 69.9674 50.5952 70.0801Z" fill="#F0F0F0"/>
<path d="M77.5596 0.681788C75.4932 1.06887 73.6183 2.14269 72.2388 3.72909C70.8592 5.31548 70.0561 7.3214 69.9597 9.42149C69.9143 10.3946 70.0993 11.3778 70.3558 12.3849C70.5954 13.2937 70.8573 14.1964 71.1411 15.0923L79.74 42.7371C76.4068 41.1189 72.6177 40.6991 69.0112 41.5485C65.4046 42.3978 62.2011 44.4643 59.9403 47.3999C57.6795 50.3354 56.4997 53.9605 56.5996 57.6643C56.6995 61.3682 58.0731 64.9244 60.4888 67.7338C62.9046 70.5431 66.2149 72.4339 69.862 73.0876C73.5091 73.7413 77.27 73.1178 80.5111 71.3223C83.7522 69.5268 86.2753 66.6689 87.6553 63.2303C89.0354 59.7917 89.188 55.9825 88.0874 52.4446L79.2326 23.9772C79.6252 24.0516 80.0542 24.1254 80.5198 24.1984L90.6517 25.8598C92.2169 26.1188 93.4926 26.3259 94.517 26.4335C95.551 26.5487 96.5488 26.5936 97.5061 26.4166C99.5731 26.0288 101.448 24.9539 102.828 23.3662C104.207 21.7785 105.009 19.7713 105.104 17.6704C105.149 16.6972 104.964 15.7141 104.707 14.7037C104.453 13.7063 104.071 12.4756 103.599 10.96L103.516 10.6912C103.165 9.56412 102.891 8.68322 102.472 7.89702C101.393 5.87682 99.6079 4.32447 97.4574 3.53585C96.6161 3.22922 95.7072 3.08214 94.5439 2.89344L84.414 1.23855C83.1305 1.01252 81.8413 0.82016 80.5476 0.66166C79.5169 0.545375 78.5159 0.501562 77.5596 0.681788Z" fill="#F0F0F0"/>
</svg>
